<svg xmlns="http://www.w3.org/2000/svg" version="1.1" xmlns:xlink="http://www.w3.org/1999/xlink" xmlns:svgjs="http://svgjs.dev/svgjs" width="1500" height="1500" viewBox="0 0 1500 1500"><rect width="1500" height="1500" fill="#6254f3"></rect><g transform="matrix(0.6666666666666666,0,0,0.6666666666666666,249.22046288037842,173.46720647773276)"><svg viewBox="0 0 214 247" data-background-color="#6254f3" preserveAspectRatio="xMidYMid meet" height="1731" width="1500" xmlns="http://www.w3.org/2000/svg" xmlns:xlink="http://www.w3.org/1999/xlink"><g id="tight-bounds" transform="matrix(1,0,0,1,0.16682094359902067,-0.09999999999999432)"><svg viewBox="0 0 213.666358112802 247.2" height="247.2" width="213.666358112802"><g><svg viewBox="0 0 395.52 457.5944704799173" height="247.2" width="213.666358112802"><g transform="matrix(1,0,0,1,0,278.07452566607157)"><svg viewBox="0 0 395.52 179.51994481384574" height="179.51994481384574" width="395.52"><g id="textblocktransform"><svg viewBox="0 0 395.52 179.51994481384574" height="179.51994481384574" width="395.52" id="textblock"><g><svg viewBox="0 0 395.52 126.98436915796914" height="126.98436915796914" width="395.52"><g transform="matrix(1,0,0,1,0,0)"><svg width="395.52" viewBox="0.7 -34 148.873333333325 47.8" height="126.98436915796914" data-palette-color="#d2dbc8"><path d="M9.8 0.65L9.8 0.65Q7.35 0.65 5.28-0.08 3.2-0.8 1.95-2.1 0.7-3.4 0.7-5.15L0.7-5.15Q0.7-6.3 1.25-7.18 1.8-8.05 2.75-8.05L2.75-8.05Q3.35-8.05 4-7.6L4-7.6Q5.25-6.5 7.23-5.68 9.2-4.85 11.45-4.85L11.45-4.85Q14.4-4.85 16.28-6.03 18.15-7.2 18.15-9.2L18.15-9.2Q18.15-11.1 16.4-11.95 14.65-12.8 11.55-13.55L11.55-13.55Q9.25-14.1 7.13-14.95 5-15.8 3.63-17.32 2.25-18.85 2.25-21.4L2.25-21.4Q2.25-23.35 3.1-25.28 3.95-27.2 5.6-28.8 7.25-30.4 9.6-31.38 11.95-32.35 14.9-32.35L14.9-32.35Q17.1-32.35 18.93-31.85 20.75-31.35 21.83-30.45 22.9-29.55 22.9-28.25L22.9-28.25Q22.9-27.25 22.35-26.5 21.8-25.75 21.05-25.33 20.3-24.9 19.75-24.9L19.75-24.9Q19.25-24.9 18.4-25.35L18.4-25.35Q17-26.1 15.28-26.53 13.55-26.95 12.25-26.95L12.25-26.95Q9.8-26.95 8.28-25.88 6.75-24.8 6.75-23.35L6.75-23.35Q6.75-21.75 8.68-20.68 10.6-19.6 15.6-18.4L15.6-18.4Q19-17.5 20.9-15.93 22.8-14.35 22.8-10.95L22.8-10.95Q22.8-7.9 21.18-5.25 19.55-2.6 16.63-0.98 13.7 0.65 9.8 0.65ZM28.3 0.55L28.3 0.55Q27.6 0.55 27.1 0.23 26.6-0.1 26.7-0.65L26.7-0.65Q27.45-4.65 27.97-8.78 28.5-12.9 28.5-17.1L28.5-17.1Q28.5-20.8 28.25-23.8 28-26.8 26.65-29.55L26.65-29.55Q26.4-30.1 26.25-30.5 26.1-30.9 26.1-31.25L26.1-31.25Q26.1-32.2 27.22-33.1 28.35-34 29.6-34L29.6-34Q31.35-34 32-31.8 32.65-29.6 32.65-25.3L32.65-25.3Q32.65-20.15 32.05-16.32 31.45-12.5 31-10.5L31-10.5 31.2-10.4Q32.2-13.05 33.62-15.35 35.05-17.65 36.95-19.05 38.85-20.45 41.35-20.45L41.35-20.45Q44-20.45 45.37-18.85 46.75-17.25 46.75-14.9L46.75-14.9Q46.75-13.9 46.55-12.98 46.35-12.05 46.1-11.2L46.1-11.2Q45.85-10.4 45.65-9.58 45.45-8.75 45.45-7.9L45.45-7.9Q45.45-6.35 46.2-5.38 46.95-4.4 48.2-4L48.2-4Q48.55-3.9 48.72-3.73 48.9-3.55 48.9-3.1L48.9-3.1Q48.9-2.65 48.6-1.8 48.3-0.95 47.5-0.23 46.7 0.5 45.15 0.5L45.15 0.5Q43.15 0.5 42.05-0.93 40.95-2.35 40.95-4.6L40.95-4.6Q40.95-5.7 41.17-6.85 41.4-8 41.7-9.05L41.7-9.05Q41.95-10.1 42.15-11.03 42.35-11.95 42.35-12.6L42.35-12.6Q42.35-14.9 39.95-14.9L39.95-14.9Q37.95-14.9 36.42-13.48 34.9-12.05 33.82-9.88 32.75-7.7 32.05-5.4L32.05-5.4 32.05-3.7Q32.05-1.85 30.97-0.65 29.9 0.55 28.3 0.55ZM60 0.65L60 0.65Q56.55 0.65 54.47-1.23 52.4-3.1 52.4-6.75L52.4-6.75Q52.4-8.45 52.87-10.05 53.35-11.65 54.15-13.05L54.15-13.05Q53.35-12.55 52.95-12.55L52.95-12.55Q52.35-12.55 52.12-13.23 51.9-13.9 51.9-14.55L51.9-14.55Q51.9-15.7 52.37-16.38 52.85-17.05 53.3-17.4L53.3-17.4Q54.35-18.3 56.6-19.38 58.85-20.45 62-20.45L62-20.45Q66.3-20.45 68.67-18.05 71.05-15.65 71.05-11.35L71.05-11.35Q71.05-8 69.65-5.28 68.25-2.55 65.77-0.95 63.3 0.65 60 0.65ZM61.55-4.45L61.55-4.45Q64.05-4.45 65.77-6.03 67.5-7.6 67.5-10.2L67.5-10.2Q67.5-12.9 65.75-14.05 64-15.2 61.7-15.2L61.7-15.2Q60.65-15.2 59.8-15 58.95-14.8 58.2-14.5L58.2-14.5Q57.5-13.5 56.95-12.25 56.4-11 56.4-9.5L56.4-9.5Q56.4-7 57.9-5.73 59.4-4.45 61.55-4.45ZM77.74 13.8L77.74 13.8Q76.24 13.8 75.39 12.98 74.54 12.15 74.54 10L74.54 10Q74.54 8.55 74.87 6.35 75.19 4.15 75.64 1.7L75.64 1.7Q75.99-0.25 76.32-2.4 76.64-4.55 76.87-6.63 77.09-8.7 77.09-10.35L77.09-10.35Q77.09-12.25 76.67-13.65 76.24-15.05 74.94-15.45L74.94-15.45Q74.44-15.65 74.04-15.9 73.64-16.15 73.64-16.7L73.64-16.7Q73.64-17.4 74.19-18.25 74.74-19.1 75.77-19.73 76.79-20.35 78.09-20.35L78.09-20.35Q79.79-20.35 80.44-19.18 81.09-18 81.09-16.1L81.09-16.1Q81.09-15.55 81.04-14.98 80.99-14.4 80.89-13.8L80.89-13.8Q82.34-16.6 84.72-18.53 87.09-20.45 90.09-20.45L90.09-20.45Q93.09-20.45 94.82-18.43 96.54-16.4 96.54-12.95L96.54-12.95Q96.54-10.4 95.74-7.98 94.94-5.55 93.49-3.6 92.04-1.65 90.02-0.5 87.99 0.65 85.49 0.65L85.49 0.65Q83.69 0.65 82.34 0.03 80.99-0.6 79.99-1.6L79.99-1.6Q79.79-0.3 79.62 1.55 79.44 3.4 79.44 5L79.44 5Q79.44 6.85 79.87 7.9 80.29 8.95 81.54 9.5L81.54 9.5Q82.09 9.75 82.09 10.3L82.09 10.3Q82.09 10.7 81.69 11.55 81.29 12.4 80.37 13.1 79.44 13.8 77.74 13.8ZM86.64-4.75L86.64-4.75Q89.49-4.75 91.04-6.55 92.59-8.35 92.59-10.7L92.59-10.7Q92.59-12.75 91.49-13.88 90.39-15 88.54-15L88.54-15Q86.64-15 85.19-13.88 83.74-12.75 82.72-10.95 81.69-9.15 81.04-7.1L81.04-7.1Q83.54-4.75 86.64-4.75ZM104.59-24.85L104.59-24.85Q103.19-24.9 102.34-25.7 101.49-26.5 101.49-27.95L101.49-27.95Q101.54-29.5 102.54-30.48 103.54-31.45 105.09-31.4L105.09-31.4Q106.54-31.35 107.37-30.55 108.19-29.75 108.14-28.3L108.14-28.3Q108.09-26.8 107.14-25.83 106.19-24.85 104.59-24.85ZM104.64 0.5L104.64 0.5Q103.14 0.5 102.29-0.33 101.44-1.15 101.44-3.15L101.44-3.15Q101.44-4.3 101.67-5.4 101.89-6.5 102.19-7.55L102.19-7.55Q102.54-8.65 102.77-9.8 102.99-10.95 102.99-12.25L102.99-12.25Q102.99-13.15 102.74-13.98 102.49-14.8 101.64-15.2L101.64-15.2Q100.99-15.55 100.52-15.93 100.04-16.3 100.04-16.9L100.04-16.9Q100.04-17.6 100.69-18.4 101.34-19.2 102.42-19.78 103.49-20.35 104.64-20.35L104.64-20.35Q105.89-20.35 106.47-19.7 107.04-19.05 107.24-18.05 107.44-17.05 107.44-16L107.44-16Q107.44-14.4 107.19-12.88 106.94-11.35 106.69-10.05L106.69-10.05Q106.49-9.1 106.39-8.3 106.29-7.5 106.29-6.8L106.29-6.8Q106.29-5.55 106.89-4.93 107.49-4.3 108.59-3.75L108.59-3.75Q109.04-3.5 109.04-3L109.04-3Q109.04-2.6 108.64-1.75 108.24-0.9 107.27-0.2 106.29 0.5 104.64 0.5ZM115.74 9.6L115.74 9.6Q114.79 9.6 114.29 9.13 113.79 8.65 113.84 7.4L113.84 7.4Q113.84 6.65 113.96 4.73 114.09 2.8 114.31 0.18 114.54-2.45 114.81-5.3 115.09-8.15 115.34-10.8 115.59-13.45 115.79-15.35L115.79-15.35Q115.29-15.3 114.84-15.28 114.39-15.25 113.94-15.15L113.94-15.15Q113.44-15.05 113.19-15.05L113.19-15.05Q112.59-15.05 112.39-15.78 112.19-16.5 112.19-17.15L112.19-17.15Q112.19-17.9 112.41-18.4 112.64-18.9 113.39-19.2L113.39-19.2Q113.84-19.4 114.56-19.55 115.29-19.7 116.09-19.8L116.09-19.8Q116.34-22.75 116.86-25.4 117.39-28.05 118.49-29.9L118.49-29.9Q119.64-31.8 121.61-32.9 123.59-34 125.64-34L125.64-34Q127.14-34 128.46-33.43 129.79-32.85 130.61-31.83 131.44-30.8 131.44-29.5L131.44-29.5Q131.44-28.55 130.96-27.95 130.49-27.35 129.89-27.35L129.89-27.35Q129.64-27.35 129.34-27.45 129.04-27.55 128.74-27.65L128.74-27.65Q128.19-27.9 127.36-28.08 126.54-28.25 125.59-28.25L125.59-28.25Q123.64-28.25 122.51-27.2 121.39-26.15 120.81-24.33 120.24-22.5 119.89-20.1L119.89-20.1Q120.94-20.2 122.14-20.3 123.34-20.4 124.09-20.4L124.09-20.4Q125.29-20.4 125.96-20.03 126.64-19.65 126.64-18.6L126.64-18.6Q126.64-17.95 126.41-17.07 126.19-16.2 125.74-15.53 125.29-14.85 124.69-14.85L124.69-14.85Q124.44-14.85 123.84-15L123.84-15Q123.19-15.1 122.14-15.25 121.09-15.4 119.49-15.45L119.49-15.45Q119.29-13.3 119.16-10.68 119.04-8.05 119.04-5.15L119.04-5.15Q119.04-2 119.24 0.3 119.44 2.6 119.64 4.05L119.64 4.05Q119.74 4.7 119.79 5.2 119.84 5.7 119.84 6L119.84 6Q119.84 7.45 119.14 8.22 118.44 9 117.49 9.3 116.54 9.6 115.74 9.6ZM130.44 13.8L130.44 13.8Q128.39 13.8 126.91 12.7 125.44 11.6 125.44 9.75L125.44 9.75Q125.44 8.3 126.31 7.28 127.19 6.25 128.49 6.25L128.49 6.25Q129.09 6.25 129.34 6.45 129.59 6.65 129.74 6.9L129.74 6.9Q130.14 7.55 130.66 8.03 131.19 8.5 132.09 8.5L132.09 8.5Q133.29 8.5 134.41 7.65 135.54 6.8 136.49 5.7L136.49 5.7Q137.34 4.75 138.54 2.98 139.74 1.2 140.94-1.05L140.94-1.05Q139.84-0.1 138.89 0.33 137.94 0.75 137.09 0.75L137.09 0.75Q136.04 0.75 135.04-0.03 134.04-0.8 133.79-2.95L133.79-2.95Q133.64-4.6 133.21-6.6 132.79-8.6 132.16-10.48 131.54-12.35 130.64-13.65L130.64-13.65Q130.29-14.25 129.84-14.55 129.39-14.85 128.54-14.95L128.54-14.95Q127.94-15 127.76-15.3 127.59-15.6 127.59-16.25L127.59-16.25Q127.59-18.05 128.59-19.15 129.59-20.25 131.29-20.25L131.29-20.25Q133.34-20.25 134.24-18.68 135.14-17.1 135.79-14.85L135.79-14.85Q136.04-13.95 136.31-12.48 136.59-11 136.81-9.3 137.04-7.6 137.14-6.05L137.14-6.05Q137.19-4.95 138.39-4.95L138.39-4.95Q139.99-4.95 141.44-5.95 142.89-6.95 143.81-8.55 144.74-10.15 144.74-11.9L144.74-11.9Q144.74-12.9 144.49-13.7 144.24-14.5 143.64-15.1L143.64-15.1Q143.14-15.7 142.84-16.07 142.54-16.45 142.54-16.95L142.54-16.95Q142.54-17.8 143.34-18.55 144.14-19.3 145.26-19.8 146.39-20.3 147.24-20.3L147.24-20.3Q148.74-20.3 149.24-18.88 149.74-17.45 149.49-15.75L149.49-15.75Q149.19-13.4 148.29-10.2 147.39-7 145.96-3.5 144.54 0 142.71 3.28 140.89 6.55 138.84 9L138.84 9Q137.09 11.15 134.94 12.48 132.79 13.8 130.44 13.8Z" opacity="1" transform="matrix(1,0,0,1,0,0)" fill="#d2dbc8" class="wordmark-text-0" data-fill-palette-color="primary" id="text-0"></path></svg></g></svg></g><g transform="matrix(1,0,0,1,75.54432,156.96233109130586)"><svg viewBox="0 0 244.43135999999998 22.557613722539873" height="22.557613722539873" width="244.43135999999998"><g transform="matrix(1,0,0,1,0,0)"><svg width="244.43135999999998" viewBox="3 -35.5 498.39 46" height="22.557613722539873" data-palette-color="#d2dbc8"><path d="M19.3-1.5Q20.6-2 21.48-3.33 22.35-4.65 22.35-7.6L22.35-7.6 22.35-14.7Q21-13.5 18.75-12.88 16.5-12.25 14.45-12.25L14.45-12.25Q9.15-12.25 6.08-14.88 3-17.5 3-22.65L3-22.65 3-35 5.8-35 5.8-22.15Q5.8-18.65 8.2-16.82 10.6-15 14.45-15L14.45-15Q17.4-15 19.6-16.25 21.8-17.5 22.35-20L22.35-20 22.35-35 25.2-35 25.2-7.8Q25.2-4.15 23.83-2.08 22.45 0 19.95 0.35L19.95 0.35 19.3-1.5ZM48.65-9.2Q48.65-5 46.35-2.25 44.05 0.5 39.4 0.5L39.4 0.5Q34.75 0.5 32.37-2.27 30-5.05 30-9.2L30-9.2 30-15.8Q30-20.55 32.42-23.08 34.85-25.6 39.4-25.6L39.4-25.6Q43.75-25.6 46.2-22.98 48.65-20.35 48.65-15.8L48.65-15.8 48.65-9.2ZM45.85-15.8Q45.85-19.55 44.12-21.3 42.4-23.05 39.4-23.05L39.4-23.05Q36.3-23.05 34.55-21.3 32.8-19.55 32.8-15.8L32.8-15.8 32.8-8.7Q32.8-5.7 34.57-3.85 36.35-2 39.4-2L39.4-2Q42.5-2 44.17-3.83 45.85-5.65 45.85-8.7L45.85-8.7 45.85-15.8ZM68 0L68.2-2.55Q67-1.05 65.17-0.25 63.34 0.55 61.5 0.55L61.5 0.55Q52.09 0.55 52.09-8.6L52.09-8.6 52.09-25.05 54.9-25.05 54.9-8.25Q54.9-5.05 56.67-3.5 58.45-1.95 61.5-1.95L61.5-1.95Q64.5-1.95 66.22-3.48 67.95-5 67.95-8.25L67.95-8.25 67.95-25.05 70.75-25.05 70.75 0 68 0ZM75.69 0L75.69-25.05 78.49-25.05 78.34-23.3Q80.69-25.5 84.49-25.5L84.49-25.5Q85.84-25.5 88.19-25.05L88.19-25.05 87.44-22.5Q85.84-23 84.09-23L84.09-23Q81.79-23 80.14-22.15 78.49-21.3 78.49-19.6L78.49-19.6 78.49 0 75.69 0ZM107.64-6.35Q107.94-4.1 109.89-2.98 111.84-1.85 114.24-1.85L114.24-1.85Q116.49-1.85 118.34-2.88 120.19-3.9 120.19-6.2L120.19-6.2Q120.19-7.7 119.31-8.68 118.44-9.65 117.14-10.25 115.84-10.85 113.64-11.55L113.64-11.55Q111.19-12.35 109.64-13.05 108.09-13.75 106.94-15.03 105.79-16.3 105.59-18.25L105.59-18.25 105.54-18.85Q105.54-20.5 106.46-22.08 107.39-23.65 109.31-24.65 111.24-25.65 114.14-25.65L114.14-25.65Q115.74-25.65 116.96-25.33 118.19-25 118.89-24.65 119.59-24.3 119.74-24.2L119.74-24.2 118.79-21.9Q118.64-22 118.06-22.3 117.49-22.6 116.44-22.9 115.39-23.2 114.14-23.2L114.14-23.2Q111.74-23.2 110.04-22.08 108.34-20.95 108.34-18.95L108.34-18.95Q108.34-17.05 109.89-16.05 111.44-15.05 114.64-14.05L114.64-14.05Q117.34-13.15 118.99-12.35 120.64-11.55 121.81-10.08 122.99-8.6 122.99-6.25L122.99-6.25Q122.99-3.25 120.76-1.25 118.54 0.75 114.24 0.75L114.24 0.75Q111.39 0.75 109.31-0.23 107.24-1.2 106.16-2.8 105.09-4.4 104.99-6.35L104.99-6.35 107.64-6.35ZM143.64 0L143.64-17.15Q143.64-20.2 141.86-21.58 140.09-22.95 137.29-22.95L137.29-22.95Q135.59-22.95 133.84-22.48 132.09-22 130.74-21.25L130.74-21.25 130.74 0 127.94 0 127.94-35 130.74-35 130.74-23.7Q131.99-24.55 133.74-25.03 135.49-25.5 137.39-25.5L137.39-25.5Q139.99-25.5 142.14-24.55L142.14-24.55Q144.14-23.65 145.26-21.85 146.39-20.05 146.39-17.3L146.39-17.3 146.39 0 143.64 0ZM171.93-9.2Q171.93-5 169.63-2.25 167.33 0.5 162.68 0.5L162.68 0.5Q158.03 0.5 155.66-2.27 153.28-5.05 153.28-9.2L153.28-9.2 153.28-15.8Q153.28-20.55 155.71-23.08 158.13-25.6 162.68-25.6L162.68-25.6Q167.03-25.6 169.48-22.98 171.93-20.35 171.93-15.8L171.93-15.8 171.93-9.2ZM169.13-15.8Q169.13-19.55 167.41-21.3 165.68-23.05 162.68-23.05L162.68-23.05Q159.58-23.05 157.83-21.3 156.08-19.55 156.08-15.8L156.08-15.8 156.08-8.7Q156.08-5.7 157.86-3.85 159.63-2 162.68-2L162.68-2Q165.78-2 167.46-3.83 169.13-5.65 169.13-8.7L169.13-8.7 169.13-15.8ZM177.48 10.5L177.48-25.05 180.28-25.05 180.03-22.5Q181.38-23.95 183.21-24.7 185.03-25.45 186.83-25.45L186.83-25.45Q191.48-25.45 193.91-22.75 196.33-20.05 196.33-15.75L196.33-15.75 196.33-8.8Q196.33-4.25 193.78-1.83 191.23 0.6 187.03 0.6L187.03 0.6Q184.88 0.6 183.23 0 181.58-0.6 180.28-2.1L180.28-2.1 180.28 9.4 177.48 10.5ZM193.53-15.95Q193.53-19.6 191.61-21.25 189.68-22.9 187.03-22.9L187.03-22.9Q184.33-22.9 182.38-21.28 180.43-19.65 180.28-16.2L180.28-16.2 180.28-8.3Q180.28-5.05 182.13-3.5 183.98-1.95 187.03-1.95L187.03-1.95Q189.78-1.95 191.66-3.58 193.53-5.2 193.53-8.3L193.53-8.3 193.53-15.95ZM201.88 10.5L201.88-25.05 204.68-25.05 204.43-22.5Q205.78-23.95 207.6-24.7 209.43-25.45 211.23-25.45L211.23-25.45Q215.88-25.45 218.3-22.75 220.73-20.05 220.73-15.75L220.73-15.75 220.73-8.8Q220.73-4.25 218.18-1.83 215.63 0.6 211.43 0.6L211.43 0.6Q209.28 0.6 207.63 0 205.98-0.6 204.68-2.1L204.68-2.1 204.68 9.4 201.88 10.5ZM217.93-15.95Q217.93-19.6 216-21.25 214.08-22.9 211.43-22.9L211.43-22.9Q208.73-22.9 206.78-21.28 204.83-19.65 204.68-16.2L204.68-16.2 204.68-8.3Q204.68-5.05 206.53-3.5 208.38-1.95 211.43-1.95L211.43-1.95Q214.18-1.95 216.05-3.58 217.93-5.2 217.93-8.3L217.93-8.3 217.93-15.95ZM227.98-32.15Q227.33-32.15 226.8-32.68 226.28-33.2 226.28-33.85L226.28-33.85Q226.28-34.5 226.78-35 227.28-35.5 227.98-35.5L227.98-35.5Q228.68-35.5 229.15-35.02 229.63-34.55 229.63-33.85L229.63-33.85Q229.63-33.15 229.13-32.65 228.63-32.15 227.98-32.15L227.98-32.15ZM226.53 0L226.53-25.05 229.33-25.05 229.33 0 226.53 0ZM252.52 0L252.52-17.15Q252.52-20.2 250.75-21.58 248.97-22.95 246.17-22.95L246.17-22.95Q244.47-22.95 242.72-22.48 240.97-22 239.62-21.25L239.62-21.25 239.62 0 236.82 0 236.82-25.05 239.62-25.05 239.42-23.35Q240.62-24.4 242.47-24.93 244.32-25.45 246.32-25.45L246.32-25.45Q249.07-25.45 251.02-24.55L251.02-24.55Q253.02-23.65 254.15-21.85 255.27-20.05 255.27-17.3L255.27-17.3 255.27 0 252.52 0ZM273.22 8.35Q276.52 7.1 276.52 3.15L276.52 3.15 276.52-3.05Q274.42 0.6 269.77 0.6L269.77 0.6Q265.37 0.6 262.92-1.8 260.47-4.2 260.47-8.8L260.47-8.8 260.47-16.25Q260.47-20.65 263.05-23.08 265.62-25.5 269.97-25.5L269.97-25.5Q274.62-25.5 276.72-22.15L276.72-22.15 276.52-25.05 279.32-25.05 279.32 3.2Q279.32 6.2 278.07 7.9 276.82 9.6 273.97 10.5L273.97 10.5 273.22 8.35ZM276.52-16.8Q276.52-19.9 274.52-21.43 272.52-22.95 269.77-22.95L269.77-22.95Q267.12-22.95 265.2-21.33 263.27-19.7 263.27-16L263.27-16 263.27-8.35Q263.27-5.2 265.05-3.6 266.82-2 269.77-2L269.77-2Q272.57-2 274.55-3.73 276.52-5.45 276.52-8.65L276.52-8.65 276.52-16.8ZM298.81-17.3Q298.81-22.55 303.06-24.5L303.06-24.5Q305.12-25.45 307.97-25.45L307.97-25.45Q309.81-25.45 311.54-25 313.27-24.55 314.47-23.7L314.47-23.7 314.47-35 317.27-35 317.27 0 314.52 0.25Q311.27 0.6 309.42 0.6L309.42 0.6Q307.56 0.6 305.94 0.25 304.31-0.1 302.72-0.9L302.72-0.9Q300.92-1.8 299.87-3.55 298.81-5.3 298.81-7.85L298.81-7.85 298.81-17.3ZM314.47-21.25Q313.12-22 311.37-22.48 309.62-22.95 307.92-22.95L307.92-22.95Q305.12-22.95 303.34-21.58 301.56-20.2 301.56-17.15L301.56-17.15 301.56-7.8Q301.56-1.95 309.62-1.95L309.62-1.95Q311.52-1.95 314.47-2.4L314.47-2.4 314.47-21.25ZM337.41-1.75Q335.61-0.6 333.31 0 331.01 0.6 328.71 0.6L328.71 0.6Q325.01 0.6 322.84-1.23 320.66-3.05 320.66-6.7L320.66-6.7 320.66-16.95Q320.66-21 323.19-23.25 325.71-25.5 329.86-25.5L329.86-25.5Q334.01-25.5 336.34-23.28 338.66-21.05 338.66-17.1L338.66-17.1 338.66-10.6 323.46-9.75 323.46-6.7Q323.46-4.3 325.01-3.1 326.56-1.9 329.06-1.9L329.06-1.9Q332.56-1.9 336.31-3.9L336.31-3.9 337.41-1.75ZM335.86-17.45Q335.86-20.55 333.91-21.83 331.96-23.1 329.81-23.1L329.81-23.1Q327.06-23.1 325.26-21.6 323.46-20.1 323.46-16.9L323.46-16.9 323.46-12.5 335.86-13.1 335.86-17.45ZM345.06-6.35Q345.36-4.1 347.31-2.98 349.26-1.85 351.66-1.85L351.66-1.85Q353.91-1.85 355.76-2.88 357.61-3.9 357.61-6.2L357.61-6.2Q357.61-7.7 356.74-8.68 355.86-9.65 354.56-10.25 353.26-10.85 351.06-11.55L351.06-11.55Q348.61-12.35 347.06-13.05 345.51-13.75 344.36-15.03 343.21-16.3 343.01-18.25L343.01-18.25 342.96-18.85Q342.96-20.5 343.88-22.08 344.81-23.65 346.74-24.65 348.66-25.65 351.56-25.65L351.56-25.65Q353.16-25.65 354.38-25.33 355.61-25 356.31-24.65 357.01-24.3 357.16-24.2L357.16-24.2 356.21-21.9Q356.06-22 355.49-22.3 354.91-22.6 353.86-22.9 352.81-23.2 351.56-23.2L351.56-23.2Q349.16-23.2 347.46-22.08 345.76-20.95 345.76-18.95L345.76-18.95Q345.76-17.05 347.31-16.05 348.86-15.05 352.06-14.05L352.06-14.05Q354.76-13.15 356.41-12.35 358.06-11.55 359.24-10.08 360.41-8.6 360.41-6.25L360.41-6.25Q360.41-3.25 358.19-1.25 355.96 0.75 351.66 0.75L351.66 0.75Q348.81 0.75 346.74-0.23 344.66-1.2 343.59-2.8 342.51-4.4 342.41-6.35L342.41-6.35 345.06-6.35ZM369.66 0.65Q366.86-0.15 365.61-1.9 364.36-3.65 364.36-6.6L364.36-6.6 364.36-35 367.16-35 367.16-25.05 373.16-25.05 371.96-22.4 367.16-22.4 367.16-6.6Q367.16-2.6 370.46-1.5L370.46-1.5 369.66 0.65ZM379.91-32.15Q379.25-32.15 378.73-32.68 378.2-33.2 378.2-33.85L378.2-33.85Q378.2-34.5 378.7-35 379.2-35.5 379.91-35.5L379.91-35.5Q380.61-35.5 381.08-35.02 381.56-34.55 381.56-33.85L381.56-33.85Q381.56-33.15 381.06-32.65 380.56-32.15 379.91-32.15L379.91-32.15ZM378.45 0L378.45-25.05 381.25-25.05 381.25 0 378.45 0ZM404.45 0L404.45-17.15Q404.45-20.2 402.68-21.58 400.9-22.95 398.1-22.95L398.1-22.95Q396.4-22.95 394.65-22.48 392.9-22 391.55-21.25L391.55-21.25 391.55 0 388.75 0 388.75-25.05 391.55-25.05 391.35-23.35Q392.55-24.4 394.4-24.93 396.25-25.45 398.25-25.45L398.25-25.45Q401-25.45 402.95-24.55L402.95-24.55Q404.95-23.65 406.08-21.85 407.2-20.05 407.2-17.3L407.2-17.3 407.2 0 404.45 0ZM431.65 0Q426.25 0.55 423.85 0.55L423.85 0.55Q418.6 0.55 415.5-1.4 412.4-3.35 412.4-8.45L412.4-8.45 412.4-12.6Q412.4-17.55 415.85-19.25L415.85-19.25Q417.5-20.1 420.05-20.1L420.05-20.1Q422.4-20.1 424.8-19.33 427.2-18.55 428.85-17.3L428.85-17.3Q428.85-20.05 427.25-21.68 425.65-23.3 421.1-23.3L421.1-23.3 421.25-25.45Q426.05-25.45 428.32-23.93 430.6-22.4 431.13-20.3 431.65-18.2 431.65-14.9L431.65-14.9 431.65 0ZM428.85-15.15Q426.8-16.1 424.48-16.8 422.15-17.5 420.2-17.5L420.2-17.5Q415.15-17.5 415.15-12.45L415.15-12.45 415.15-8.1Q415.15-4.85 417.4-3.38 419.65-1.9 423.8-1.9L423.8-1.9Q425.95-1.9 428.85-2.3L428.85-2.3 428.85-15.15ZM439.65 0.65Q436.85-0.15 435.6-1.9 434.35-3.65 434.35-6.6L434.35-6.6 434.35-35 437.15-35 437.15-25.05 443.15-25.05 441.95-22.4 437.15-22.4 437.15-6.6Q437.15-2.6 440.45-1.5L440.45-1.5 439.65 0.65ZM449.89-32.15Q449.24-32.15 448.72-32.68 448.19-33.2 448.19-33.85L448.19-33.85Q448.19-34.5 448.69-35 449.19-35.5 449.89-35.5L449.89-35.5Q450.59-35.5 451.07-35.02 451.54-34.55 451.54-33.85L451.54-33.85Q451.54-33.15 451.04-32.65 450.54-32.15 449.89-32.15L449.89-32.15ZM448.44 0L448.44-25.05 451.24-25.05 451.24 0 448.44 0ZM478.09-9.2Q478.09-5 475.79-2.25 473.49 0.5 468.84 0.5L468.84 0.5Q464.19 0.5 461.82-2.27 459.44-5.05 459.44-9.2L459.44-9.2 459.44-15.8Q459.44-20.55 461.87-23.08 464.29-25.6 468.84-25.6L468.84-25.6Q473.19-25.6 475.64-22.98 478.09-20.35 478.09-15.8L478.09-15.8 478.09-9.2ZM475.29-15.8Q475.29-19.55 473.57-21.3 471.84-23.05 468.84-23.05L468.84-23.05Q465.74-23.05 463.99-21.3 462.24-19.55 462.24-15.8L462.24-15.8 462.24-8.7Q462.24-5.7 464.02-3.85 465.79-2 468.84-2L468.84-2Q471.94-2 473.62-3.83 475.29-5.65 475.29-8.7L475.29-8.7 475.29-15.8ZM498.64 0L498.64-17.15Q498.64-20.2 496.86-21.58 495.09-22.95 492.29-22.95L492.29-22.95Q490.59-22.95 488.84-22.48 487.09-22 485.74-21.25L485.74-21.25 485.74 0 482.94 0 482.94-25.05 485.74-25.05 485.54-23.35Q486.74-24.4 488.59-24.93 490.44-25.45 492.44-25.45L492.44-25.45Q495.19-25.45 497.14-24.55L497.14-24.55Q499.14-23.65 500.26-21.85 501.39-20.05 501.39-17.3L501.39-17.3 501.39 0 498.64 0Z" opacity="1" transform="matrix(1,0,0,1,0,0)" fill="#d2dbc8" class="slogan-text-1" data-fill-palette-color="secondary" id="text-1"></path></svg></g></svg></g></svg></g></svg></g><g transform="matrix(1,0,0,1,76.73666192564393,0)"><svg viewBox="0 0 242.04667614871212 248.09656373273484" height="248.09656373273484" width="242.04667614871212"><g><svg xmlns="http://www.w3.org/2000/svg" xmlns:xlink="http://www.w3.org/1999/xlink" version="1.1" x="8" y="0" viewBox="9.000121550667213 5.000001904463208 82.0011374474439 89.9999980955368" enable-background="new 0 0 100 100" xml:space="preserve" height="248.09656373273484" width="226.04667614871212" class="icon-icon-0" data-fill-palette-color="accent" id="icon-0"><g fill="#f8f8ec" data-fill-palette-color="accent"><path d="M27.995 18.967C29.722 18.762 30.639 16.839 30.861 14.764L31.327 10.408C31.611 7.751 29.684 5.346 27.044 5.061L26.756 5.028C24.114 4.742 21.72 6.68 21.436 9.336L20.962 13.726C25.773 14.801 24.567 19.382 27.995 18.967" fill="#f8f8ec" data-fill-palette-color="accent"></path><path d="M57.004 88.787A3.1 3.1 0 0 0 53.914 91.891 3.1 3.1 0 0 0 57.004 95C58.708 95 60.09 93.609 60.09 91.891A3.096 3.096 0 0 0 57.004 88.787" fill="#f8f8ec" data-fill-palette-color="accent"></path><rect x="56.858" y="46.775" width="22.558" height="5.937" fill="#f8f8ec" data-fill-palette-color="accent"></rect><path d="M80.666 88.787A3.097 3.097 0 0 0 77.575 91.891 3.1 3.1 0 0 0 80.666 95C82.369 95 83.753 93.609 83.753 91.891A3.1 3.1 0 0 0 80.666 88.787" fill="#f8f8ec" data-fill-palette-color="accent"></path><path d="M84.034 73.904L90.884 56.669A1.667 1.667 0 0 0 89.955 54.509 1.5 1.5 0 0 0 89.362 54.384H51.984L50.53 44.595A1.664 1.664 0 0 0 48.879 43.086H45.55L42.058 41.668 31.521 38.61 27.868 20.724C28.01 23.114 24.311 21.933 22.152 19.724 18.655 19.11 17.294 22.576 17.131 24.7 17.105 33.446 16.851 42.353 16.759 51.052L24.258 51.132 16.747 52.318 16.745 52.652 9.743 85.402C8.061 90.652 9.288 92.314 12.889 94.752L22.875 64.087 19.964 54.941 34.55 89.439C36.386 94.642 38.364 95.21 42.696 94.947L30.835 54.146 31.294 43.738C34.862 44.262 38.108 44.704 40.058 44.966L41.743 47.323 45.553 48.438 46.522 46.428H47.449L48.898 56.222 48.92 56.384 53.26 85.629A1.66 1.66 0 0 0 54.904 87.06H82.474C83.392 87.06 84.135 86.312 84.135 85.387 84.135 84.465 83.392 83.717 82.474 83.717H56.333L55.056 75.104H82.445C83.197 75.104 83.83 74.6 84.034 73.904M79.416 71.758V59.396H56.858V71.757H54.903C54.784 71.757 54.671 71.771 54.562 71.794L52.48 57.726H86.897L81.322 71.758z" fill="#f8f8ec" data-fill-palette-color="accent"></path></g></svg></g></svg></g><g></g></svg></g><defs></defs></svg><rect width="213.666358112802" height="247.2" fill="none" stroke="none" visibility="hidden"></rect></g></svg></g></svg>